<svg width="51" height="153" viewBox="0 0 51 153"
  xmlns="http://www.w3.org/2000/svg">
  <path class="fill-primary dark:fill-primary" d="M42.13 126.243C46.9 130.483 47.71 132.363 48.57 136.163C48.9147 138.396 48.6344 140.68 47.76 142.763C47.0772 144.692 45.9581 146.438 44.49 147.863C42.3186 149.893 39.6246 151.279 36.71 151.863C33.7764 152.331 30.7707 151.985 28.02 150.863C25.6692 149.916 23.6091 148.366 22.0468 146.371C20.4846 144.375 19.4751 142.003 19.12 139.493C18.9251 137.25 19.3108 134.994 20.24 132.943C21.1826 130.905 22.4603 129.039 24.02 127.423C24.88 126.423 26.33 125.653 26.76 124.953C27.35 123.953 28.9 122.163 28.15 122.113C27.565 121.985 26.9927 121.804 26.44 121.573C26.17 121.303 23.7 119.323 22.95 117.663C22.57 116.913 21.88 116.423 21.39 115.663C20.85 114.941 20.3492 114.19 19.89 113.413C19.7544 113.126 19.6951 112.808 19.7178 112.491C19.7406 112.174 19.8447 111.868 20.02 111.603C20.3267 111.049 20.5941 110.475 20.82 109.883C21.069 109.193 21.1072 108.445 20.93 107.733C20.93 107.633 20.77 107.363 20.71 107.143C20.34 105.273 20.82 103.393 20.61 101.403C20.61 101.353 20.5 101.303 20.5 101.243C20.71 99.3132 20.44 97.7032 20.5 95.9932C20.5 95.6132 21.25 95.1832 20.98 94.9132C20.6563 94.6136 20.3678 94.2781 20.12 93.9132C19.8069 93.3464 19.5906 92.7313 19.48 92.0932C19.3578 90.7035 19.321 89.3075 19.37 87.9132C19.37 85.3832 19.16 82.8132 19.21 80.3432C19.3331 79.5866 19.548 78.8478 19.85 78.1432L18.94 77.3932L18.46 75.1432C18.3928 74.1077 18.3928 73.0688 18.46 72.0332C18.723 70.5294 19.135 69.0554 19.69 67.6332C20.0195 66.6449 20.0576 65.5827 19.8 64.5732C19.2927 63.2049 18.8621 61.8094 18.51 60.3932C18.24 58.6732 18.67 56.5832 18.29 55.2932C18.13 54.7032 17.22 54.4332 16.36 54.2932C15.8298 54.2684 15.3067 54.1604 14.81 53.9732C14.3696 53.8233 13.9648 53.5844 13.6207 53.2713C13.2766 52.9582 13.0006 52.5776 12.81 52.1532C12.76 51.9832 12.81 51.9832 12.76 51.8832C12.38 51.2332 11.47 51.0732 11.04 50.4832C10.6772 49.954 10.4411 49.3484 10.35 48.7132C10.18 48.1832 10.45 47.4332 10.02 47.0032C9.59 46.5732 9.02 46.7332 8.63 46.4132C7.56889 45.4379 6.72699 44.2483 6.16 42.9232C4.71 39.8132 4.71 32.7332 4.87 32.6232L2.02 35.1032C1.68813 35.1474 1.35187 35.1474 1.02 35.1032C0.64 35.0032 0.02 34.6232 0.11 34.4632C0.105803 34.1271 0.0689631 33.7922 0 33.4632L2.27 31.4032L5.02 29.0032C4.93342 28.2175 4.95361 27.4236 5.08 26.6432C5.15308 26.1743 5.3779 25.7422 5.72 25.4132C6.26 24.7132 6.63 23.9032 7.44 23.5332C8.12789 23.2773 8.84238 23.0995 9.57 23.0032C9.57 23.0032 10.1 23.3832 10.48 23.2232C11.23 22.8932 11.23 21.7732 11.77 21.1232C12.4511 20.3843 13.2241 19.7357 14.07 19.1932C14.6304 18.8361 15.2501 18.5821 15.9 18.4432C16.3637 18.4584 16.8195 18.5673 17.24 18.7632L20.73 15.6532L34.57 3.13323C34.5653 2.86317 34.5989 2.59381 34.67 2.33323C35.0129 1.52961 35.5963 0.851901 36.34 0.39323C37.0282 0.0226867 37.8258 -0.0907526 38.59 0.0732304C39.3695 0.241335 40.101 0.583157 40.73 1.07323C41.3772 1.46306 41.9007 2.0282 42.24 2.70323C42.4605 3.33167 42.4391 4.0197 42.18 4.63323C41.9 5.13566 41.4441 5.51678 40.9 5.70323C40.2438 5.87 39.5562 5.87 38.9 5.70323C38.2502 5.65364 37.614 5.49121 37.02 5.22323C36.567 4.94665 36.1532 4.61029 35.79 4.22323L21.02 18.2032L19.02 19.8732C19.1535 20.31 19.2439 20.7588 19.29 21.2132C19.2726 21.7176 19.1464 22.2122 18.92 22.6632C18.7026 23.1751 18.3981 23.6454 18.02 24.0532C17.49 24.5932 16.68 24.7532 16.15 25.2832C15.8476 25.5935 15.6097 25.9605 15.45 26.3632C15.172 27.0482 14.9903 27.7684 14.91 28.5032C14.7841 29.2833 14.7305 30.0733 14.75 30.8632C14.75 31.8632 15.18 33.0632 15.29 34.0832C15.34 34.8332 14.75 35.9132 15.4 36.3332C15.9209 36.6371 16.4788 36.8724 17.06 37.0332L17.97 37.5132C18.51 37.7832 18.97 38.1132 19.53 38.3732C19.9 38.5332 20.22 38.8632 20.65 38.7532C21.4827 38.4832 22.3703 38.4281 23.23 38.5932C23.9163 38.8514 24.5845 39.1554 25.23 39.5032C25.8897 39.9402 26.6437 40.2144 27.43 40.3032C27.748 40.2972 28.0609 40.2226 28.3474 40.0845C28.6338 39.9464 28.8872 39.7482 29.09 39.5032C29.2356 39.336 29.3446 39.1402 29.4101 38.9284C29.4755 38.7166 29.4959 38.4934 29.47 38.2732C29.3019 37.933 29.0184 37.6637 28.67 37.5132C28.45 37.4132 28.18 37.5732 27.97 37.5132C27.6395 37.3576 27.3503 37.1262 27.1262 36.8377C26.902 36.5493 26.7491 36.2119 26.68 35.8532C26.7132 35.6024 26.6962 35.3474 26.63 35.1032C26.41 34.4032 25.55 33.9732 25.45 33.2232C25.07 30.5432 24.64 29.2232 25.07 27.2232C25.34 25.8732 26.14 25.0732 27 23.5732C27.1364 23.2048 27.3002 22.8472 27.49 22.5032C27.8319 22.1136 28.2295 21.7766 28.67 21.5032C29.52 20.9132 33.44 21.4432 33.67 21.4432C34.5039 21.6686 35.3143 21.9733 36.09 22.3532C37.21 22.9432 37.48 24.1832 38.09 25.2532C38.8074 26.2445 39.3517 27.3502 39.7 28.5232C39.753 29.1888 39.753 29.8576 39.7 30.5232C39.7 31.3832 39.7 32.1832 39.7 33.0432C39.76 33.5332 39.86 34.4432 39.86 34.4432C39.7307 34.5683 39.6227 34.7135 39.54 34.8732C39.33 35.4032 39.65 36.0532 39.38 36.5332C39.2762 36.7903 39.1089 37.0168 38.8938 37.1917C38.6787 37.3666 38.4228 37.4841 38.15 37.5332C37.82 37.5932 38.04 38.1332 38.15 38.3932C38.36 38.8832 38.79 38.7732 39.43 39.4732C40.0126 39.9533 40.6964 40.2952 41.43 40.4732C42.5779 40.7398 43.7447 40.917 44.92 41.0032C46.26 41.2232 47.28 42.5632 48.14 43.6332C48.5645 44.3221 48.9388 45.0406 49.26 45.7832C49.7772 46.6678 50.1581 47.6252 50.39 48.6232C50.6224 49.7711 50.6964 50.9453 50.61 52.1132C50.5291 53.3142 50.3111 54.5019 49.96 55.6532C49.59 57.3132 48.78 58.8632 48.57 60.5332C48.51 60.9032 47.87 63.5332 47.87 63.5932C47.6831 63.825 47.5222 64.0765 47.39 64.3432C47.2174 65.0804 47.1801 65.8428 47.28 66.5932C47.3992 67.7766 47.6337 68.9454 47.98 70.0832C48.6314 72.8927 49.0957 75.7423 49.37 78.6132C49.37 79.6132 49.21 80.7032 49.21 81.7232C49.21 82.7432 49.37 83.6532 48.73 84.5132C48.46 84.8332 47.73 84.5132 47.44 84.8832C47.15 85.2532 47.44 85.8832 47.44 86.4432C47.44 89.4432 47.65 92.4432 47.82 95.4432C47.87 97.1632 48.3 99.7332 48.03 100.643C47.87 101.133 47.23 101.293 46.74 101.453C46.53 101.553 45.83 101.343 45.83 101.613C45.72 102.473 45.83 104.673 45.72 106.173C45.3336 109.059 44.7251 111.911 43.9 114.703C43.4291 115.269 43.1491 115.969 43.1 116.703C43.1 117.073 43.2 117.983 43.26 118.843C43.32 119.703 43.58 120.403 43.74 121.203C43.9 122.003 43.58 122.653 43.9 123.623C43.9294 124.175 43.8193 124.725 43.58 125.223C43.58 125.223 42.93 125.923 42.72 125.873C42.34 126.143 42.02 126.143 42.13 126.193V126.243Z"/>
</svg>
